ffmpeg started on 2016-11-27 at 04:31:28
Report written to "Output/NVENCh264/results/ffmpeg/crowd_run_2160p50llhq3000k.log"
Command line:
Tools/ffmpeg/ffmpeg -benchmark -y -i Input/y4m/crowd_run_2160p50.y4m -c:v h264_nvenc -preset llhq -b:v 3000k -an Output/NVENCh264/encoded/crowd_run_2160p50llhq3000k.mkv
ffmpeg version N-82227-gdb23fde Copyright (c) 2000-2016 the FFmpeg developers
  built with gcc 5.4.0 (Ubuntu 5.4.0-6ubuntu1~16.04.2) 20160609
  configuration: --prefix=/home/jaroslav/ffmpeg_build --pkg-config-flags=--static --extra-cflags=-I/home/jaroslav/ffmpeg_build/include --extra-ldflags=-L/home/jaroslav/ffmpeg_build/lib --bindir=/home/jaroslav/bin --enable-gpl --enable-libass --enable-libfdk-aac --enable-libfreetype --enable-libmp3lame --enable-libopus --enable-libtheora --enable-libvorbis --enable-libvpx --enable-libx264 --enable-libx265 --enable-nvenc --enable-libmfx --enable-libxvid --enable-libgsm --enable-libopencore-amrnb --enable-version3 --enable-nonfree
  libavutil      55. 35.100 / 55. 35.100
  libavcodec     57. 66.101 / 57. 66.101
  libavformat    57. 57.100 / 57. 57.100
  libavdevice    57.  2.100 / 57.  2.100
  libavfilter     6. 66.100 /  6. 66.100
  libswscale      4.  3.100 /  4.  3.100
  libswresample   2.  4.100 /  2.  4.100
  libpostproc    54.  2.100 / 54.  2.100
Input #0, yuv4mpegpipe, from 'Input/y4m/crowd_run_2160p50.y4m':
  Duration: 00:00:10.00, start: 0.000000, bitrate: 4976642 kb/s
    Stream #0:0: Video: rawvideo (I420 / 0x30323449), yuv420p(progressive), 3840x2160, SAR 1:1 DAR 16:9, 50 fps, 50 tbr, 50 tbn, 50 tbc
[h264_nvenc @ 0x33711c0] The variable bitrate rate-control requires the 'qmin' and/or 'qmax' option set.
Output #0, matroska, to 'Output/NVENCh264/encoded/crowd_run_2160p50llhq3000k.mkv':
  Metadata:
    encoder         : Lavf57.57.100
    Stream #0:0: Video: h264 (h264_nvenc) (Main) (H264 / 0x34363248), yuv420p, 3840x2160 [SAR 1:1 DAR 16:9], q=-1--1, 3000 kb/s, 50 fps, 1k tbn, 50 tbc
    Metadata:
      encoder         : Lavc57.66.101 h264_nvenc
    Side data:
      cpb: bitrate max/min/avg: 0/0/3000000 buffer size: 6000000 vbv_delay: -1
Stream mapping:
  Stream #0:0 -> #0:0 (rawvideo (native) -> h264 (h264_nvenc))
Press [q] to stop, [?] for help
frame=    9 fps=0.0 q=0.0 size=       0kB time=00:00:00.00 bitrate=N/A speed=   0x    frame=   19 fps= 18 q=0.0 size=       0kB time=00:00:00.00 bitrate=N/A speed=   0x    frame=   29 fps= 18 q=0.0 size=       0kB time=00:00:00.00 bitrate=N/A speed=   0x    frame=   42 fps= 20 q=49.0 size=       1kB time=00:00:00.22 bitrate=  27.0kbits/s speed=0.104x    frame=   60 fps= 23 q=49.0 size=       1kB time=00:00:00.58 bitrate=  10.3kbits/s speed=0.219x    frame=   64 fps= 14 q=49.0 size=       1kB time=00:00:00.66 bitrate=   9.0kbits/s speed=0.145x    frame=   65 fps=7.7 q=49.0 size=       1kB time=00:00:00.68 bitrate=   8.8kbits/s speed=0.0811x    frame=   66 fps=5.4 q=49.0 size=       1kB time=00:00:00.70 bitrate=   8.5kbits/s speed=0.057x    frame=   83 fps=6.5 q=49.0 size=       1kB time=00:00:01.04 bitrate=   5.7kbits/s speed=0.0813x    frame=  101 fps=7.6 q=49.0 size=       1kB time=00:00:01.40 bitrate=   4.3kbits/s speed=0.105x    frame=  119 fps=8.6 q=49.0 size=       1kB time=00:00:01.76 bitrate=   3.4kbits/s speed=0.127x    frame=  137 fps=9.5 q=49.0 size=       1kB time=00:00:02.12 bitrate=   2.8kbits/s speed=0.148x    frame=  154 fps= 10 q=49.0 size=       1kB time=00:00:02.46 bitrate=   2.4kbits/s speed=0.166x    frame=  171 fps= 11 q=49.0 size=       1kB time=00:00:02.80 bitrate=   2.1kbits/s speed=0.182x    frame=  188 fps= 12 q=49.0 size=       1kB time=00:00:03.14 bitrate=   1.9kbits/s speed=0.198x    frame=  205 fps= 12 q=49.0 size=       1kB time=00:00:03.48 bitrate=   1.7kbits/s speed=0.212x    frame=  222 fps= 13 q=49.0 size=       1kB time=00:00:03.82 bitrate=   1.6kbits/s speed=0.226x    frame=  240 fps= 14 q=49.0 size=       1kB time=00:00:04.18 bitrate=   1.4kbits/s speed=0.24x    frame=  258 fps= 14 q=49.0 size=       1kB time=00:00:04.54 bitrate=   1.3kbits/s speed=0.253x    frame=  276 fps= 15 q=49.0 size=       1kB time=00:00:04.90 bitrate=   1.2kbits/s speed=0.265x    frame=  293 fps= 15 q=49.0 size=    3048kB time=00:00:05.24 bitrate=4764.7kbits/s speed=0.276x    frame=  311 fps= 16 q=49.0 size=    3048kB time=00:00:05.60 bitrate=4458.5kbits/s speed=0.287x    frame=  328 fps= 16 q=49.0 size=    3048kB time=00:00:05.94 bitrate=4203.3kbits/s speed=0.296x    frame=  339 fps= 16 q=49.0 size=    3048kB time=00:00:06.16 bitrate=4053.2kbits/s speed=0.299x    frame=  357 fps= 17 q=49.0 size=    3048kB time=00:00:06.52 bitrate=3829.5kbits/s speed=0.309x    frame=  375 fps= 17 q=49.0 size=    3048kB time=00:00:06.88 bitrate=3629.1kbits/s speed=0.318x    frame=  393 fps= 18 q=49.0 size=    3048kB time=00:00:07.24 bitrate=3448.7kbits/s speed=0.327x    frame=  411 fps= 18 q=49.0 size=    3048kB time=00:00:07.60 bitrate=3285.4kbits/s speed=0.335x    frame=  429 fps= 19 q=49.0 size=    3048kB time=00:00:07.96 bitrate=3136.8kbits/s speed=0.343x    frame=  447 fps= 19 q=49.0 size=    3048kB time=00:00:08.32 bitrate=3001.1kbits/s speed=0.351x    frame=  465 fps= 19 q=49.0 size=    3048kB time=00:00:08.68 bitrate=2876.6kbits/s speed=0.359x    frame=  483 fps= 20 q=49.0 size=    3048kB time=00:00:09.04 bitrate=2762.1kbits/s speed=0.366x    frame=  500 fps= 20 q=49.0 size=    3048kB time=00:00:09.38 bitrate=2662.0kbits/s speed=0.368x    frame=  500 fps= 20 q=49.0 Lsize=    6251kB time=00:00:09.98 bitrate=5130.8kbits/s speed=0.391x    
video:6247kB audio:0kB subtitle:0kB other streams:0kB global headers:0kB muxing overhead: 0.068001%
bench: utime=1.148s
bench: maxrss=1396916kB
